<svg width="170" height="90" viewBox="0 0 170 90" fill="none" xmlns="http://www.w3.org/2000/svg">
<path fill-rule="evenodd" clip-rule="evenodd" d="M94.7778 32.3106L91.3915 32.4512L89.055 32.3458C88.4906 33.8454 87.328 35.7316 85.5672 38.0044C84.8448 38.9417 84.1224 39.8321 83.4 40.6756C82.6776 41.5191 81.9439 42.3275 81.1989 43.1007C81.1989 40.4062 81.3682 36.6689 81.7069 31.8889L77.1354 32.873C77.2709 35.1224 77.3386 37.981 77.3386 41.4488V48.4782C77.3386 50.095 77.3048 51.536 77.237 52.8013C77.1999 53.8408 77.14 54.7695 77.0572 55.5876L81.304 52.5236L81.1989 49.6732V44.8581C82.6663 44.8581 83.6709 44.9753 84.2127 45.2096C85.9961 45.9125 87.3619 47.4355 88.31 49.7787C88.6035 50.4816 88.8631 51.3603 89.0889 52.4147C89.1249 52.5676 89.1607 52.7242 89.1962 52.8845L93.2798 55.8308C92.8607 54.0111 92.5872 52.3588 92.3558 50.9615C92.0512 49.1215 91.8197 47.7235 91.4254 46.9669C89.8677 43.9443 87.5199 42.1049 84.382 41.4488C86.8652 39.1057 88.9647 37.1726 90.6804 35.6496C92.3961 34.1266 93.7619 33.0136 94.7778 32.3106Z" fill="#FFD666"/>
<path fill-rule="evenodd" clip-rule="evenodd" d="M91.8197 59.74C91.6971 59.7172 91.5792 59.6858 91.4707 59.6367C91.5212 59.6238 91.5717 59.6107 91.622 59.5974L91.8197 59.74ZM69.7716 10.7517L69.7695 10.7527C67.8914 11.648 65.8834 12.6054 64.7652 15.0302C64.2684 15.8591 64.0566 16.8353 63.8449 17.811C63.6972 18.492 63.5495 19.1727 63.305 19.8028C63.7281 19.3094 64.2401 18.8114 64.7655 18.3004C65.6084 17.4807 66.4856 16.6276 67.0843 15.7065C67.4229 15.1202 67.7095 14.5529 67.9881 14.0015C68.6017 12.7871 69.1763 11.6497 70.1814 10.5556C70.0459 10.6209 69.9089 10.6862 69.7716 10.7517ZM99.8186 10.5556C100.824 11.6499 101.399 12.7874 102.012 14.002C102.291 14.5533 102.578 15.1204 102.916 15.7065C103.515 16.6277 104.392 17.4808 105.235 18.3007C105.76 18.8115 106.272 19.3095 106.695 19.8028C106.451 19.1728 106.303 18.4919 106.155 17.8109C105.943 16.8353 105.732 15.859 105.235 15.0302C104.117 12.6054 102.109 11.648 100.23 10.7527C100.092 10.6868 99.9549 10.6213 99.8186 10.5556ZM64.8148 13.9087C63.8007 14.2291 62.8994 14.9912 62.1886 16.0891C60.5506 18.2227 60.2698 21.0218 60.9486 24.3964C61.0892 24.9335 61.0248 25.4502 60.9616 25.9581C60.9198 26.2942 60.8785 26.6264 60.8972 26.9582C61.3783 25.7334 61.9232 24.6077 62.9827 23.8192C65.3452 22.1597 65.995 21.2809 66.5995 19.7164L66.6831 19.5001C67.3208 17.8522 67.443 17.5365 67.458 15.9524C66.9889 17.5778 65.8715 18.5576 64.7646 19.5282C64.2544 19.9756 63.7463 20.4211 63.305 20.927C62.5863 21.8021 62.0106 22.8161 61.6829 23.8899L61.6326 23.8405C61.7266 23.3222 61.8722 22.8326 62.0175 22.3441C62.1385 21.9372 62.2593 21.5312 62.3497 21.11C62.5153 20.4454 62.6279 19.7449 62.7408 19.043C63.0535 17.0981 63.3679 15.1423 64.8148 13.9087ZM105.119 13.9087C106.566 15.1423 106.88 17.0981 107.193 19.043C107.306 19.7449 107.418 20.4454 107.584 21.11C107.674 21.531 107.795 21.9373 107.916 22.3441C108.061 22.8326 108.207 23.3222 108.301 23.8405L108.251 23.8899C107.923 22.8161 107.347 21.8021 106.629 20.927C106.187 20.4211 105.679 19.9756 105.169 19.5282C104.062 18.5576 102.945 17.5778 102.475 15.9524C102.491 17.5356 102.613 17.8519 103.25 19.4975L103.334 19.7164C103.939 21.2809 104.588 22.1597 106.951 23.8192C108.01 24.6077 108.555 25.7334 109.036 26.9582C109.055 26.6264 109.014 26.2942 108.972 25.9581C108.909 25.4502 108.844 24.9335 108.985 24.3964C109.664 21.0218 109.383 18.2227 107.745 16.0891C107.034 14.9912 106.133 14.2291 105.119 13.9087Z" fill="white"/>
<path d="M62.9739 55.7103C63.682 57.4369 64.9145 58.9245 66.2795 59.9275L66.8176 58.2828C65.3725 57.9191 64.0377 57.2179 62.9739 55.7103Z" fill="white"/>
<path d="M78.3779 59.5973C78.4283 59.6107 78.4788 59.6238 78.5293 59.6367C78.4208 59.6858 78.3029 59.7172 78.1802 59.74L78.3779 59.5973Z" fill="white"/>
<path d="M88.096 59.5317C87.246 59.5313 86.3975 59.654 85.5827 59.9154C85.2466 60.29 84.9043 60.1343 84.5555 59.9757C84.3675 59.8902 84.1777 59.8038 83.9859 59.7992C80.8293 58.9357 78.0649 60.4556 75.4226 61.9083C75.1284 62.07 74.8357 62.2309 74.5441 62.3877C74.5113 62.4037 74.4783 62.4194 74.4451 62.4348L71.2981 64.7054C73.687 65.7995 76.4882 64.9856 78.4491 63.2864C78.8928 62.9774 79.3205 62.5912 79.7498 62.2036C80.9851 61.0882 82.2338 59.9607 83.9159 60.6273C81.6092 61.9564 79.5007 63.8198 77.5944 66.2149L78.7886 67.4444C80.1786 65.1312 82.0276 63.2433 83.8973 61.7766C83.9594 61.7352 84.022 61.6923 84.0852 61.649C84.4343 61.4097 84.7993 61.1597 85.1802 61.099C87.4768 62.5 89.5281 64.8948 91.3803 67.3819C91.7754 66.9859 92.195 66.5562 92.5189 66.0968C90.5969 63.7825 88.4948 61.9714 86.2319 60.6562C86.6079 60.522 87.0346 60.4959 87.4771 60.5072C88.4283 60.4353 89.1431 61.0736 89.859 61.7128C90.0611 61.8933 90.2634 62.0739 90.4711 62.2386C92.7268 64.3718 95.7169 65.8037 98.612 64.6405L94.662 61.7907L93.3869 61.1519C91.8436 60.1291 89.966 59.5327 88.096 59.5317Z" fill="white"/>
<path d="M103.182 58.2829C104.628 57.9193 105.963 57.218 107.026 55.7103C106.318 57.437 105.086 58.9247 103.721 59.9278L103.182 58.2829Z" fill="white"/>
<path d="M105.784 23.9347C105.434 23.4504 105.125 22.9585 104.946 22.3897C104.991 22.8412 105 23.3409 105.008 23.8522C105.026 24.8536 105.044 25.8998 105.339 26.7173C105.636 27.4393 106.023 28.1078 106.444 28.7544H109.232C108.58 27.0701 107.356 25.6983 106.181 24.381C106.047 24.2316 105.915 24.083 105.784 23.9347Z" fill="white"/>
<path d="M109.757 28.7544L109.718 28.1043C109.696 27.0538 109.811 25.9663 109.927 24.8791C110.169 22.6038 110.411 20.3296 109.388 18.398C109.424 18.3896 109.449 18.4114 109.474 18.4337C109.481 18.4403 109.489 18.447 109.497 18.4529L109.502 18.4565L109.507 18.4602C109.607 18.6181 109.706 18.7733 109.804 18.9263C111.048 20.8791 112.075 22.4904 112.02 25.199C112.082 26.4149 111.886 27.5945 111.59 28.7544H109.757Z" fill="white"/>
<path d="M112.43 28.7544C112.428 28.3143 112.394 27.8613 112.321 27.3924C112.486 27.8242 112.6 28.2846 112.695 28.7544H112.43Z" fill="white"/>
<path d="M57.305 28.7544C57.4002 28.2846 57.5144 27.8242 57.6791 27.3924C57.6056 27.8613 57.5718 28.3143 57.5703 28.7544H57.305Z" fill="white"/>
<path d="M58.4098 28.7544C58.1143 27.5945 57.9178 26.4149 57.9803 25.199C57.9254 22.4908 58.9517 20.8801 60.1959 18.9277C60.2937 18.7742 60.3928 18.6186 60.4929 18.4602C60.5049 18.4528 60.5158 18.4431 60.5266 18.4336C60.5518 18.4113 60.5763 18.3896 60.6122 18.398C59.5895 20.3295 59.8314 22.6034 60.0734 24.8787C60.1891 25.966 60.3048 27.0536 60.2825 28.1043L60.2435 28.7544H58.4098Z" fill="white"/>
<path d="M65.0541 22.3897C64.8746 22.9585 64.5657 23.4504 64.2163 23.9347C64.0857 24.0824 63.9536 24.2305 63.8208 24.3793L63.8188 24.3815C62.6434 25.6989 61.4199 27.0701 60.7679 28.7544H63.5559C63.9775 28.1078 64.364 27.4393 64.6618 26.7173C64.9567 25.9 64.9746 24.8539 64.9917 23.8526C65.0004 23.3411 65.0089 22.8414 65.0541 22.3897Z" fill="white"/>
<path d="M67.1199 53.7897C67.3265 54.2204 67.5956 54.627 67.8882 55.0108L68.186 54.1007L65.6998 47.8885C65.7236 48.0795 65.7467 48.2708 65.7698 48.4622C65.899 49.5327 66.0281 50.603 66.2784 51.6114L66.3761 51.6411V51.9793C66.5572 52.6169 66.7944 53.2259 67.1199 53.7897Z" fill="white"/>
<path fill-rule="evenodd" clip-rule="evenodd" d="M66.3761 51.6411V51.9793C66.3416 51.8577 66.3091 51.735 66.2784 51.6114L66.3761 51.6411ZM66.3761 54.72V54.0936C66.6921 54.3448 66.9976 54.6152 67.2881 54.9123C67.4431 55.0837 67.6004 55.2472 67.7605 55.4012L67.2205 57.0516C65.4133 56.5639 63.8724 55.9608 62.452 54.72H66.3761ZM58.7315 47.0336C58.915 48.4317 59.1309 49.8339 59.6923 51.0833V48.9563C59.3195 48.4051 58.9941 47.7732 58.7315 47.0336ZM59.6923 37.4937V41.2278L59.5802 41.0534C58.5201 39.4045 57.4171 37.6888 57.038 36.0722C56.8967 35.4883 56.8073 34.9561 56.759 34.4439L57.7691 35.1728V36.8716L59.6923 37.4937Z" fill="white"/>
<path d="M57.0929 42.4596C57.2417 42.9532 57.4193 43.434 57.6228 43.9004C58.1527 45.1147 58.8587 46.2318 59.6923 47.2264V43.0129C58.2506 41.3321 56.8314 39.5266 56.6517 37.2481C56.5621 37.9812 56.5366 38.7004 56.569 39.4024C56.8468 40.3232 57.018 41.3459 57.0929 42.4596Z" fill="white"/>
<path d="M104.323 52.1357C104.894 51.6071 105.42 51.2325 105.952 50.8751L105.369 48.2555L104.323 52.1357Z" fill="white"/>
<path d="M92.5542 30.0877L85 7L77.4458 30.0877H53L58.3697 33.962H60.6904L57.1981 31.4423H78.4369L85 11.3835L91.5631 31.4423H112.802L109.31 33.962H109.689V35.3626L109.922 35.1943V33.962H111.63L117 30.0877H92.5542Z" fill="white"/>
<path d="M65.2229 67.4444L85 53.1754L95.5266 60.7703L104.777 67.4444L101.861 58.5311L100.647 54.8214C100.177 54.8782 99.8197 54.9167 99.5843 54.9348L99.5459 54.9378H99.5074C99.4121 54.9378 99.322 54.9251 99.2405 54.9064L102.183 63.8981L85 51.5011L67.8175 63.8981L70.7893 54.8155C70.2825 54.8775 69.9047 54.9181 69.6661 54.9352L69.6304 54.9378H69.5946C69.4985 54.9378 69.4075 54.9249 69.3255 54.9059L65.2229 67.4444Z" fill="white"/>
<path fill-rule="evenodd" clip-rule="evenodd" d="M102.112 55.0108L101.993 54.6493C102.135 54.6298 102.275 54.6099 102.415 54.5896C102.318 54.733 102.217 54.8734 102.112 55.0108ZM103.841 53.9253L103.716 54.3896L103.171 54.4751C103.014 54.6145 102.861 54.7599 102.712 54.9123C102.557 55.0837 102.4 55.2473 102.24 55.4015L102.802 57.1201C104.617 56.6544 106.122 56.0627 107.53 54.801C107.504 54.7887 107.482 54.7778 107.465 54.7695C107.33 54.7017 107.188 54.6141 107.047 54.5202L106.714 54.2975L106.281 52.3524L106.074 52.476C105.315 52.9298 104.555 53.3846 103.841 53.9253Z" fill="white"/>
<path d="M40.5417 28.448L36.8195 28.5973L34.2511 28.4853C33.6308 30.078 32.3528 32.0814 30.4172 34.4953C29.6232 35.4908 28.8291 36.4365 28.035 37.3324C27.2409 38.2283 26.4345 39.0869 25.6156 39.9081C25.6156 37.0462 25.8017 33.0768 26.1739 28L21.1489 29.0452C21.2978 31.4343 21.3722 34.4704 21.3722 38.1536V45.6195C21.3722 47.3367 21.335 48.8672 21.2606 50.2111C21.2109 51.5549 21.1241 52.7246 21 53.72L23.4939 53.608L25.8761 53.72L25.6156 46.8887V41.7746C27.2285 41.7746 28.3328 41.899 28.9283 42.1479C30.8887 42.8945 32.39 44.5121 33.4322 47.0007C33.7548 47.7473 34.0402 48.6805 34.2884 49.8004C34.5613 50.9203 34.8219 52.2268 35.07 53.72L37.5267 53.608L40.0206 53.72C38.7302 48.7676 37.6756 45.5324 36.8567 44.0144C35.1445 40.804 32.5637 38.8504 29.1145 38.1536C31.8441 35.665 34.1519 33.6119 36.0378 31.9943C37.9237 30.3766 39.425 29.1945 40.5417 28.448Z" fill="#FFD666"/>
<path d="M50.0575 54C47.2865 54 45.2186 53.2742 43.8538 51.8224C42.489 50.35 41.8066 48.048 41.8066 44.9165C41.8066 43.527 41.8893 42.2723 42.0547 41.1524C42.2202 40.0118 42.4476 39.0786 42.7371 38.3527C43.0473 37.855 43.5436 37.3262 44.226 36.7662C44.9291 36.1855 45.6322 35.6982 46.3353 35.3041C47.059 34.9101 47.576 34.7131 47.8862 34.7131C50.6572 34.7131 52.7251 35.4493 54.0899 36.9218C55.4547 38.3735 56.1371 40.6754 56.1371 43.8277C56.1371 46.2334 55.8787 48.4109 55.3617 50.3604C55.0308 50.8166 54.4932 51.3351 53.7487 51.9158C53.025 52.4965 52.3012 52.9942 51.5774 53.4089C50.8743 53.803 50.3677 54 50.0575 54ZM49.8094 52.1335C50.0368 52.1335 50.5124 51.9469 51.2362 51.5736C51.9807 51.2003 52.3942 50.9411 52.477 50.7959C52.8699 49.0538 53.0663 46.9178 53.0663 44.3877C53.0663 41.7953 52.7458 39.8563 52.1047 38.5705C51.4637 37.2847 50.3263 36.6418 48.6927 36.6418C47.6587 36.6418 46.904 36.7662 46.4283 37.0151C45.9114 37.2847 45.5185 38.0416 45.2496 39.286C45.0015 40.5303 44.8774 42.1997 44.8774 44.2943C44.8774 46.3267 45.0222 47.9028 45.3117 49.0227C45.6219 50.1426 46.1285 50.9411 46.8316 51.418C47.5347 51.895 48.5273 52.1335 49.8094 52.1335Z" fill="#FFD666"/>
<path d="M69.5946 53.9378C69.5119 53.9378 69.3465 53.8548 69.0983 53.6889L65.4381 44.5432C65.0245 43.527 64.2904 41.5465 63.2358 38.6016H63.0187L63.3288 50.6403V51.7602L65.3761 52.3824V53.72H58.7691V52.5379L60.6923 51.9158V36.7662L58.7691 36.1441V34.962H64.4765L68.7261 45.3831C68.9949 46.0675 69.636 47.9443 70.6492 51.0136H70.8974L70.5872 38.0105V36.9218L68.54 36.2996V34.962H75.1469V36.1441L73.2238 36.7662V53.5023C72.7275 53.5852 72.0657 53.6682 71.2386 53.7511C70.4321 53.8548 69.8841 53.917 69.5946 53.9378Z" fill="#FFD666"/>
<path d="M99.5074 53.9378C99.4247 53.9378 99.2592 53.8548 99.0111 53.6889L94.9166 36.7662L92.9935 36.1441L94 34.962H99.7245V36.2996L97.9565 36.9218L100.128 46.5341C100.314 47.4051 100.614 48.8465 101.027 50.8581H101.369C101.451 50.4848 101.637 49.7797 101.927 48.7428C102.216 47.7058 102.454 46.8452 102.64 46.1608C103.405 43.444 103.984 41.3287 104.377 39.8148L103.633 36.7662L101.958 36.0507V34.962H108.689V36.3929L106.673 36.9218L108.627 46.5341C108.813 47.4051 109.113 48.8465 109.526 50.8581H109.868L110.984 46.1297C112.225 40.945 112.949 37.8757 113.156 36.9218L110.922 36.2996V34.962H117.777V36.1441L115.854 36.7662L111.512 53.5023C110.85 53.606 110.178 53.6993 109.495 53.7822C108.834 53.8652 108.368 53.917 108.1 53.9378C108.017 53.9378 107.851 53.8548 107.603 53.6889L105.587 44.6365H105.308L102.919 53.5023C102.258 53.606 101.586 53.6993 100.903 53.7822C100.242 53.8652 99.7762 53.917 99.5074 53.9378Z" fill="#FFD666"/>
<path d="M119.28 52.5379L121.203 51.9158V36.7662L119.28 36.1441V34.962H131.625L131.222 40.4058H129.547L129.205 36.4862L124.087 36.9218V43.0811L128.616 43.2367V44.6987L124.087 44.8543V51.698L129.485 52.1957L129.981 48.1517H131.656L131.78 53.72H119.28V52.5379Z" fill="#FFD666"/>
<path d="M140.112 54C138.561 54 136.545 53.8963 134.063 53.6889L134.28 47.9962H136.017L136.514 51.4803C137.32 51.6047 138.147 51.7188 138.995 51.8224C139.864 51.9054 140.577 51.9469 141.136 51.9469C141.26 51.9469 141.425 51.8121 141.632 51.5425C141.839 51.2729 142.025 50.9514 142.19 50.5781C142.356 50.1841 142.438 49.8108 142.438 49.4582C142.438 48.6494 142.138 47.9754 141.539 47.4362C140.96 46.897 140.06 46.2852 138.84 45.6009C137.868 45.0409 137.082 44.5432 136.483 44.1077C135.883 43.6722 135.366 43.1226 134.932 42.459C134.518 41.7953 134.311 41.028 134.311 40.157C134.311 39.5763 134.363 39.0371 134.467 38.5394C134.715 38.0831 135.18 37.5543 135.862 36.9529C136.545 36.3514 137.248 35.833 137.972 35.3975C138.695 34.9412 139.233 34.7131 139.585 34.7131C139.75 34.7131 140.97 34.8272 143.245 35.0553C143.493 35.076 143.751 35.0968 144.02 35.1175C144.289 35.1382 144.558 35.1693 144.827 35.2108L144.61 40.5925H142.873L142.407 37.4195C141.746 37.295 140.96 37.181 140.05 37.0773C139.161 36.9529 138.489 36.8906 138.034 36.8906C137.765 36.8906 137.537 37.0773 137.351 37.4506C137.165 37.8031 137.072 38.3631 137.072 39.1304C137.072 39.96 137.362 40.6547 137.941 41.2146C138.52 41.7746 139.378 42.376 140.515 43.0189C141.632 43.6618 142.49 44.201 143.09 44.6365C143.71 45.0513 144.248 45.5905 144.703 46.2541C145.158 46.9178 145.385 47.7162 145.385 48.6494C145.385 49.1679 145.323 49.676 145.199 50.1737C144.951 50.6922 144.496 51.2521 143.834 51.8536C143.172 52.455 142.48 52.9631 141.756 53.3778C141.053 53.7926 140.505 54 140.112 54Z" fill="#FFD666"/>
<path d="M150.454 52.5379L152.377 51.9158V36.7662L148.996 36.9529L148.686 40.8102H147.042L146.638 34.962H161L160.597 40.8102H158.922L158.612 36.9529L155.262 36.7662V51.7602L157.309 52.3824V53.72H150.454V52.5379Z" fill="#FFD666"/>
<path d="M57.888 78.59V79.5L59.868 78.53V77.62L57.888 78.59ZM57.878 80.1V81.02L59.868 80.03V79.13L57.878 80.1Z" fill="white"/>
<path d="M99.6477 78.59V79.5L101.628 78.53V77.62L99.6477 78.59ZM99.6377 80.1V81.02L101.628 80.03V79.13L99.6377 80.1Z" fill="white"/>
<path d="M107.6 82.2C107.1 82.2 106.45 82.1667 105.65 82.1L105.72 80.27H106.28L106.44 81.39C106.7 81.43 106.966 81.4667 107.24 81.5C107.52 81.5267 107.75 81.54 107.93 81.54C107.97 81.54 108.023 81.4967 108.09 81.41C108.156 81.3233 108.216 81.22 108.27 81.1C108.323 80.9733 108.35 80.8533 108.35 80.74C108.35 80.48 108.253 80.2633 108.06 80.09C107.873 79.9167 107.583 79.72 107.19 79.5C106.876 79.32 106.623 79.16 106.43 79.02C106.236 78.88 106.07 78.7033 105.93 78.49C105.796 78.2767 105.73 78.03 105.73 77.75C105.73 77.5633 105.746 77.39 105.78 77.23C105.86 77.0833 106.01 76.9133 106.23 76.72C106.45 76.5267 106.676 76.36 106.91 76.22C107.143 76.0733 107.316 76 107.43 76C107.483 76 107.876 76.0367 108.61 76.11C108.69 76.1167 108.773 76.1233 108.86 76.13C108.946 76.1367 109.033 76.1467 109.12 76.16L109.05 77.89H108.49L108.34 76.87C108.126 76.83 107.873 76.7933 107.58 76.76C107.293 76.72 107.076 76.7 106.93 76.7C106.843 76.7 106.77 76.76 106.71 76.88C106.65 76.9933 106.62 77.1733 106.62 77.42C106.62 77.6867 106.713 77.91 106.9 78.09C107.086 78.27 107.363 78.4633 107.73 78.67C108.09 78.8767 108.366 79.05 108.56 79.19C108.76 79.3233 108.933 79.4967 109.08 79.71C109.226 79.9233 109.3 80.18 109.3 80.48C109.3 80.6467 109.28 80.81 109.24 80.97C109.16 81.1367 109.013 81.3167 108.8 81.51C108.586 81.7033 108.363 81.8667 108.13 82C107.903 82.1333 107.726 82.2 107.6 82.2Z" fill="white"/>
<path d="M111.934 81.73L112.554 81.53V76.66L111.464 76.72L111.364 77.96H110.834L110.704 76.08H115.334L115.204 77.96H114.664L114.564 76.72L113.484 76.66V81.48L114.144 81.68V82.11H111.934V81.73Z" fill="white"/>
<path d="M116.829 81.73L117.449 81.53V76.66L116.829 76.46V76.08H119.349C119.902 76.08 120.309 76.2033 120.569 76.45C120.829 76.69 120.959 77.1133 120.959 77.72C120.959 78.2067 120.849 78.5933 120.629 78.88C120.415 79.16 120.135 79.34 119.789 79.42V79.48C120.315 80.36 120.739 81.0467 121.059 81.54L121.599 81.69V82.11H120.279C120.185 81.9233 120.012 81.59 119.759 81.11C119.345 80.35 119.069 79.8167 118.929 79.51H118.379V81.48L119.049 81.65V82.11H116.829V81.73ZM119.189 78.94C119.469 78.94 119.669 78.8733 119.789 78.74C119.915 78.6 119.979 78.3267 119.979 77.92C119.979 77.46 119.932 77.1233 119.839 76.91C119.745 76.6967 119.602 76.59 119.409 76.59L118.379 76.69V78.94H119.189Z" fill="white"/>
<path d="M122.742 81.73L123.362 81.53L124.962 76.15C125.176 76.1167 125.389 76.0867 125.602 76.06C125.822 76.0333 125.976 76.0167 126.062 76.01C126.089 76.01 126.142 76.0367 126.222 76.09L127.852 81.53L128.472 81.73V82.11H126.182V81.68L126.862 81.48L126.472 80.09H124.612L124.242 81.48L124.952 81.68V82.11H122.742V81.73ZM126.322 79.56L125.602 76.88H125.482L124.762 79.56H126.322Z" fill="white"/>
<path d="M130.578 81.73L131.198 81.53V76.66L130.108 76.72L130.008 77.96H129.478L129.348 76.08H133.978L133.848 77.96H133.308L133.208 76.72L132.128 76.66V81.48L132.788 81.68V82.11H130.578V81.73Z" fill="white"/>
<path d="M135.473 81.73L136.093 81.53V76.66L135.473 76.46V76.08H139.453L139.323 77.83H138.783L138.673 76.57L137.023 76.71V78.69L138.483 78.74V79.21L137.023 79.26V81.46L138.763 81.62L138.923 80.32H139.463L139.503 82.11H135.473V81.73Z" fill="white"/>
<path d="M143.359 82.2C142.953 82.2 142.589 82.0933 142.269 81.88C141.949 81.6667 141.696 81.3467 141.509 80.92C141.323 80.4933 141.229 79.9667 141.229 79.34C141.229 78.8867 141.256 78.47 141.309 78.09C141.363 77.7033 141.436 77.3967 141.529 77.17C141.629 77.01 141.793 76.84 142.019 76.66C142.246 76.4733 142.473 76.3167 142.699 76.19C142.926 76.0633 143.089 76 143.189 76C143.403 76.0067 143.706 76.0233 144.099 76.05C144.493 76.07 144.873 76.0933 145.239 76.12L145.119 77.83H144.579L144.459 76.84C144.286 76.8067 144.036 76.7767 143.709 76.75C143.383 76.7167 143.159 76.7 143.039 76.7C142.906 76.7 142.799 76.72 142.719 76.76C142.559 76.8467 142.436 77.0867 142.349 77.48C142.263 77.8733 142.219 78.3767 142.219 78.99C142.219 79.93 142.323 80.5867 142.529 80.96C142.743 81.3333 143.033 81.52 143.399 81.52L144.489 81.42V79.83L143.559 79.66V79.2H145.869V79.59L145.349 79.72V81.52C145.209 81.62 144.869 81.76 144.329 81.94C143.796 82.1133 143.473 82.2 143.359 82.2Z" fill="white"/>
<path d="M148.641 81.73L149.291 81.53V79.87L147.701 76.66L147.081 76.46V76.08H149.371V76.51L148.711 76.71L149.771 78.96H149.861L150.871 76.71L150.181 76.51V76.08H152.391V76.46L151.771 76.66L150.221 79.84V81.53L150.871 81.73V82.11H148.641V81.73Z" fill="white"/>
<path d="M66.0098 82.2C65.6031 82.2 65.2398 82.0933 64.9198 81.88C64.5998 81.6667 64.3464 81.3467 64.1598 80.92C63.9731 80.4933 63.8798 79.9667 63.8798 79.34C63.8798 78.8867 63.9064 78.47 63.9598 78.09C64.0131 77.7033 64.0864 77.3967 64.1798 77.17C64.2798 77.01 64.4431 76.84 64.6698 76.66C64.8964 76.4733 65.1231 76.3167 65.3498 76.19C65.5764 76.0633 65.7398 76 65.8398 76C66.0531 76.0067 66.3564 76.0233 66.7498 76.05C67.1431 76.07 67.5231 76.0933 67.8898 76.12L67.7698 77.83H67.2298L67.1098 76.84C66.9364 76.8067 66.6864 76.7767 66.3598 76.75C66.0331 76.7167 65.8098 76.7 65.6898 76.7C65.5564 76.7 65.4498 76.72 65.3698 76.76C65.2098 76.8467 65.0864 77.0867 64.9998 77.48C64.9131 77.8733 64.8698 78.3767 64.8698 78.99C64.8698 79.93 64.9731 80.5867 65.1798 80.96C65.3931 81.3333 65.6831 81.52 66.0498 81.52L67.1398 81.42V79.83L66.2098 79.66V79.2H68.5198V79.59L67.9998 79.72V81.52C67.8598 81.62 67.5198 81.76 66.9798 81.94C66.4464 82.1133 66.1231 82.2 66.0098 82.2Z" fill="white"/>
<path d="M70.2116 81.73L70.8316 81.53V76.66L70.2116 76.46V76.08H72.7316C73.2849 76.08 73.6916 76.2033 73.9516 76.45C74.2116 76.69 74.3416 77.1133 74.3416 77.72C74.3416 78.2067 74.2316 78.5933 74.0116 78.88C73.7982 79.16 73.5182 79.34 73.1716 79.42V79.48C73.6982 80.36 74.1216 81.0467 74.4416 81.54L74.9816 81.69V82.11H73.6616C73.5682 81.9233 73.3949 81.59 73.1416 81.11C72.7282 80.35 72.4516 79.8167 72.3116 79.51H71.7616V81.48L72.4316 81.65V82.11H70.2116V81.73ZM72.5716 78.94C72.8516 78.94 73.0516 78.8733 73.1716 78.74C73.2982 78.6 73.3616 78.3267 73.3616 77.92C73.3616 77.46 73.3149 77.1233 73.2216 76.91C73.1282 76.6967 72.9849 76.59 72.7916 76.59L71.7616 76.69V78.94H72.5716Z" fill="white"/>
<path d="M76.125 81.73L76.745 81.53L78.345 76.15C78.5583 76.1167 78.7717 76.0867 78.985 76.06C79.205 76.0333 79.3583 76.0167 79.445 76.01C79.4717 76.01 79.525 76.0367 79.605 76.09L81.235 81.53L81.855 81.73V82.11H79.565V81.68L80.245 81.48L79.855 80.09H77.995L77.625 81.48L78.335 81.68V82.11H76.125V81.73ZM79.705 79.56L78.985 76.88H78.865L78.145 79.56H79.705Z" fill="white"/>
<path d="M86.7269 82.18C86.7003 82.18 86.647 82.1533 86.567 82.1L85.387 79.16C85.2536 78.8333 85.017 78.1967 84.677 77.25H84.607L84.707 81.12V81.48L85.3669 81.68V82.11H83.2369V81.73L83.857 81.53V76.66L83.2369 76.46V76.08H85.0769L86.4469 79.43C86.5336 79.65 86.7403 80.2533 87.067 81.24H87.1469L87.0469 77.06V76.71L86.387 76.51V76.08H88.5169V76.46L87.8969 76.66V82.04C87.7369 82.0667 87.5236 82.0933 87.2569 82.12C86.9969 82.1533 86.8203 82.1733 86.7269 82.18Z" fill="white"/>
<path d="M90.2037 81.73L90.8237 81.53V76.66L90.2037 76.46V76.08H92.9737C93.3404 76.08 93.6838 76.1733 94.0037 76.36C94.3237 76.54 94.5837 76.8433 94.7837 77.27C94.9837 77.6967 95.0837 78.25 95.0837 78.93C95.0837 80.01 94.9004 80.81 94.5337 81.33C94.1671 81.85 93.6471 82.11 92.9737 82.11H90.2037V81.73ZM93.1637 81.64C93.4504 81.64 93.6771 81.4033 93.8437 80.93C94.0104 80.45 94.0937 79.8033 94.0937 78.99C94.0937 78.55 94.0537 78.1467 93.9737 77.78C93.9004 77.4067 93.7937 77.11 93.6537 76.89C93.5137 76.6633 93.3504 76.55 93.1637 76.55L91.7537 76.69V81.48L93.1637 81.64Z" fill="white"/>
<path d="M17 81.73L17.62 81.53L19.22 76.15C19.4333 76.1167 19.6467 76.0867 19.86 76.06C20.08 76.0333 20.2333 76.0167 20.32 76.01C20.3467 76.01 20.4 76.0367 20.48 76.09L22.11 81.53L22.73 81.73V82.11H20.44V81.68L21.12 81.48L20.73 80.09H18.87L18.5 81.48L19.21 81.68V82.11H17V81.73ZM20.58 79.56L19.86 76.88H19.74L19.02 79.56H20.58Z" fill="white"/>
<path d="M24.112 81.73L24.732 81.53V76.66L24.112 76.46V76.08H26.632C27.1853 76.08 27.592 76.2033 27.852 76.45C28.112 76.69 28.242 77.1133 28.242 77.72C28.242 78.2067 28.132 78.5933 27.912 78.88C27.6986 79.16 27.4186 79.34 27.072 79.42V79.48C27.5986 80.36 28.022 81.0467 28.342 81.54L28.882 81.69V82.11H27.562C27.4686 81.9233 27.2953 81.59 27.042 81.11C26.6286 80.35 26.352 79.8167 26.212 79.51H25.662V81.48L26.332 81.65V82.11H24.112V81.73ZM26.472 78.94C26.752 78.94 26.952 78.8733 27.072 78.74C27.1986 78.6 27.262 78.3267 27.262 77.92C27.262 77.46 27.2153 77.1233 27.122 76.91C27.0286 76.6967 26.8853 76.59 26.692 76.59L25.662 76.69V78.94H26.472Z" fill="white"/>
<path d="M32.1954 82.2C31.8821 82.2 31.5887 82.0967 31.3154 81.89C31.0421 81.6833 30.8187 81.3667 30.6454 80.94C30.4787 80.5067 30.3954 79.9733 30.3954 79.34C30.3954 78.8867 30.4221 78.47 30.4754 78.09C30.5287 77.7033 30.6021 77.3967 30.6954 77.17C30.7954 77.01 30.9587 76.84 31.1854 76.66C31.4121 76.4733 31.6387 76.3167 31.8654 76.19C32.0921 76.0633 32.2554 76 32.3554 76C32.5487 76.0067 32.8187 76.02 33.1654 76.04C33.5187 76.0533 33.8654 76.0733 34.2054 76.1L34.0854 77.83H33.5454L33.4254 76.81C33.2654 76.7767 33.0554 76.75 32.7954 76.73C32.5354 76.71 32.3387 76.7 32.2054 76.7C32.0721 76.7 31.9654 76.72 31.8854 76.76C31.7254 76.8467 31.6021 77.0867 31.5154 77.48C31.4287 77.8733 31.3854 78.3767 31.3854 78.99C31.3854 79.9233 31.4987 80.57 31.7254 80.93C31.9587 81.2833 32.2721 81.46 32.6654 81.46H33.3854L33.5554 80.19L34.0654 80.2L34.0754 81.97C33.9154 82.0167 33.5887 82.0667 33.0954 82.12C32.6021 82.1733 32.3021 82.2 32.1954 82.2Z" fill="white"/>
<path d="M35.5859 81.73L36.2059 81.53L37.8059 76.15C38.0193 76.1167 38.2326 76.0867 38.4459 76.06C38.6659 76.0333 38.8193 76.0167 38.9059 76.01C38.9326 76.01 38.9859 76.0367 39.0659 76.09L40.6959 81.53L41.3159 81.73V82.11H39.0259V81.68L39.7059 81.48L39.3159 80.09H37.4559L37.0859 81.48L37.7959 81.68V82.11H35.5859V81.73ZM39.1659 79.56L38.4459 76.88H38.3259L37.6059 79.56H39.1659Z" fill="white"/>
<path d="M42.6979 81.73L43.3179 81.53V76.66L42.6979 76.46V76.08H45.4679C45.8346 76.08 46.1779 76.1733 46.4979 76.36C46.8179 76.54 47.0779 76.8433 47.2779 77.27C47.4779 77.6967 47.5779 78.25 47.5779 78.93C47.5779 80.01 47.3946 80.81 47.0279 81.33C46.6612 81.85 46.1412 82.11 45.4679 82.11H42.6979V81.73ZM45.6579 81.64C45.9446 81.64 46.1712 81.4033 46.3379 80.93C46.5046 80.45 46.5879 79.8033 46.5879 78.99C46.5879 78.55 46.5479 78.1467 46.4679 77.78C46.3946 77.4067 46.2879 77.11 46.1479 76.89C46.0079 76.6633 45.8446 76.55 45.6579 76.55L44.2479 76.69V81.48L45.6579 81.64Z" fill="white"/>
<path d="M49.4401 81.73L50.0601 81.53V76.66L49.4401 76.46V76.08H53.4201L53.2901 77.83H52.7501L52.6401 76.57L50.9901 76.71V78.69L52.4501 78.74V79.21L50.9901 79.26V81.46L52.7301 81.62L52.8901 80.32H53.4301L53.4701 82.11H49.4401V81.73Z" fill="white"/>
</svg>
