<svg width="170" height="80" viewBox="0 0 170 80" fill="none" xmlns="http://www.w3.org/2000/svg">
<path fill-rule="evenodd" clip-rule="evenodd" d="M94.7778 35.3106L91.3915 35.4512L89.055 35.3458C88.4906 36.8454 87.328 38.7316 85.5672 41.0044C84.8448 41.9417 84.1224 42.8321 83.4 43.6756C82.6776 44.5191 81.9439 45.3275 81.1989 46.1007C81.1989 43.4062 81.3682 39.6689 81.7069 34.8889L77.1354 35.873C77.2709 38.1224 77.3386 40.981 77.3386 44.4488V51.4782C77.3386 53.095 77.3048 54.536 77.237 55.8013C77.1999 56.8408 77.14 57.7695 77.0572 58.5876L81.304 55.5236L81.1989 52.6732V47.8581C82.6663 47.8581 83.6709 47.9753 84.2127 48.2096C85.9961 48.9125 87.3619 50.4355 88.31 52.7787C88.6035 53.4816 88.8631 54.3603 89.0889 55.4147C89.1249 55.5676 89.1607 55.7242 89.1962 55.8845L93.2798 58.8308C92.8607 57.0111 92.5872 55.3588 92.3558 53.9615C92.0512 52.1215 91.8197 50.7235 91.4254 49.9669C89.8677 46.9443 87.5199 45.1049 84.382 44.4488C86.8652 42.1057 88.9647 40.1726 90.6804 38.6496C92.3961 37.1266 93.7619 36.0136 94.7778 35.3106Z" fill="#FFD666"/>
<path fill-rule="evenodd" clip-rule="evenodd" d="M91.8197 62.74C91.6971 62.7172 91.5792 62.6858 91.4707 62.6367C91.5212 62.6238 91.5717 62.6107 91.622 62.5974L91.8197 62.74ZM69.7716 13.7517L69.7695 13.7527C67.8914 14.648 65.8834 15.6054 64.7652 18.0302C64.2684 18.8591 64.0566 19.8353 63.8449 20.811C63.6972 21.492 63.5495 22.1727 63.305 22.8028C63.7281 22.3094 64.2401 21.8114 64.7655 21.3004C65.6084 20.4807 66.4856 19.6276 67.0843 18.7065C67.4229 18.1202 67.7095 17.5529 67.9881 17.0015C68.6017 15.7871 69.1763 14.6497 70.1814 13.5556C70.0459 13.6209 69.9089 13.6862 69.7716 13.7517ZM99.8186 13.5556C100.824 14.6499 101.399 15.7874 102.012 17.002C102.291 17.5533 102.578 18.1204 102.916 18.7065C103.515 19.6277 104.392 20.4808 105.235 21.3007C105.76 21.8115 106.272 22.3095 106.695 22.8028C106.451 22.1728 106.303 21.4919 106.155 20.8109C105.943 19.8353 105.732 18.859 105.235 18.0302C104.117 15.6054 102.109 14.648 100.23 13.7527C100.092 13.6868 99.9549 13.6213 99.8186 13.5556ZM64.8148 16.9087C63.8007 17.2291 62.8994 17.9912 62.1886 19.0891C60.5506 21.2227 60.2698 24.0218 60.9486 27.3964C61.0892 27.9335 61.0248 28.4502 60.9616 28.9581C60.9198 29.2942 60.8785 29.6264 60.8972 29.9582C61.3783 28.7334 61.9232 27.6077 62.9827 26.8192C65.3452 25.1597 65.995 24.2809 66.5995 22.7164L66.6831 22.5001C67.3208 20.8522 67.443 20.5365 67.458 18.9524C66.9889 20.5778 65.8715 21.5576 64.7646 22.5282C64.2544 22.9756 63.7463 23.4211 63.305 23.927C62.5863 24.8021 62.0106 25.8161 61.6829 26.8899L61.6326 26.8405C61.7266 26.3222 61.8722 25.8326 62.0175 25.3441C62.1385 24.9372 62.2593 24.5312 62.3497 24.11C62.5153 23.4454 62.6279 22.7449 62.7408 22.043C63.0535 20.0981 63.3679 18.1423 64.8148 16.9087ZM105.119 16.9087C106.566 18.1423 106.88 20.0981 107.193 22.043C107.306 22.7449 107.418 23.4454 107.584 24.11C107.674 24.531 107.795 24.9373 107.916 25.3441C108.061 25.8326 108.207 26.3222 108.301 26.8405L108.251 26.8899C107.923 25.8161 107.347 24.8021 106.629 23.927C106.187 23.4211 105.679 22.9756 105.169 22.5282C104.062 21.5576 102.945 20.5778 102.475 18.9524C102.491 20.5356 102.613 20.8519 103.25 22.4975L103.334 22.7164C103.939 24.2809 104.588 25.1597 106.951 26.8192C108.01 27.6077 108.555 28.7334 109.036 29.9582C109.055 29.6264 109.014 29.2942 108.972 28.9581C108.909 28.4502 108.844 27.9335 108.985 27.3964C109.664 24.0218 109.383 21.2227 107.745 19.0891C107.034 17.9912 106.133 17.2291 105.119 16.9087Z" fill="white"/>
<path d="M62.9739 58.7103C63.682 60.4369 64.9145 61.9245 66.2795 62.9275L66.8176 61.2828C65.3725 60.9191 64.0377 60.2179 62.9739 58.7103Z" fill="white"/>
<path d="M78.3779 62.5973C78.4283 62.6107 78.4788 62.6238 78.5293 62.6367C78.4208 62.6858 78.3029 62.7172 78.1802 62.74L78.3779 62.5973Z" fill="white"/>
<path d="M88.096 62.5317C87.246 62.5313 86.3975 62.654 85.5827 62.9154C85.2466 63.29 84.9043 63.1343 84.5555 62.9757C84.3675 62.8902 84.1777 62.8038 83.9859 62.7992C80.8293 61.9357 78.0649 63.4556 75.4226 64.9083C75.1284 65.07 74.8357 65.2309 74.5441 65.3877C74.5113 65.4037 74.4783 65.4194 74.4451 65.4348L71.2981 67.7054C73.687 68.7995 76.4882 67.9856 78.4491 66.2864C78.8928 65.9774 79.3205 65.5912 79.7498 65.2036C80.9851 64.0882 82.2338 62.9607 83.9159 63.6273C81.6092 64.9564 79.5007 66.8198 77.5944 69.2149L78.7886 70.4444C80.1786 68.1312 82.0276 66.2433 83.8973 64.7766C83.9594 64.7352 84.022 64.6923 84.0852 64.649C84.4343 64.4097 84.7993 64.1597 85.1802 64.099C87.4768 65.5 89.5281 67.8948 91.3803 70.3819C91.7754 69.9859 92.195 69.5562 92.5189 69.0968C90.5969 66.7825 88.4948 64.9714 86.2319 63.6562C86.6079 63.522 87.0346 63.4959 87.4771 63.5072C88.4283 63.4353 89.1431 64.0736 89.859 64.7128C90.0611 64.8933 90.2634 65.0739 90.4711 65.2386C92.7268 67.3718 95.7169 68.8037 98.612 67.6405L94.662 64.7907L93.3869 64.1519C91.8436 63.1291 89.966 62.5327 88.096 62.5317Z" fill="white"/>
<path d="M103.182 61.2829C104.628 60.9193 105.963 60.218 107.026 58.7103C106.318 60.437 105.086 61.9247 103.721 62.9278L103.182 61.2829Z" fill="white"/>
<path d="M105.784 26.9347C105.434 26.4504 105.125 25.9585 104.946 25.3897C104.991 25.8412 105 26.3409 105.008 26.8522C105.026 27.8536 105.044 28.8998 105.339 29.7173C105.636 30.4393 106.023 31.1078 106.444 31.7544H109.232C108.58 30.0701 107.356 28.6983 106.181 27.381C106.047 27.2316 105.915 27.083 105.784 26.9347Z" fill="white"/>
<path d="M109.757 31.7544L109.718 31.1043C109.696 30.0538 109.811 28.9663 109.927 27.8791C110.169 25.6038 110.411 23.3296 109.388 21.398C109.424 21.3896 109.449 21.4114 109.474 21.4337C109.481 21.4403 109.489 21.447 109.497 21.4529L109.502 21.4565L109.507 21.4602C109.607 21.6181 109.706 21.7733 109.804 21.9263C111.048 23.8791 112.075 25.4904 112.02 28.199C112.082 29.4149 111.886 30.5945 111.59 31.7544H109.757Z" fill="white"/>
<path d="M112.43 31.7544C112.428 31.3143 112.394 30.8613 112.321 30.3924C112.486 30.8242 112.6 31.2846 112.695 31.7544H112.43Z" fill="white"/>
<path d="M57.305 31.7544C57.4002 31.2846 57.5144 30.8242 57.6791 30.3924C57.6056 30.8613 57.5718 31.3143 57.5703 31.7544H57.305Z" fill="white"/>
<path d="M58.4098 31.7544C58.1143 30.5945 57.9178 29.4149 57.9803 28.199C57.9254 25.4908 58.9517 23.8801 60.1959 21.9277C60.2937 21.7742 60.3928 21.6186 60.4929 21.4602C60.5049 21.4528 60.5158 21.4431 60.5266 21.4336C60.5518 21.4113 60.5763 21.3896 60.6122 21.398C59.5895 23.3295 59.8314 25.6034 60.0734 27.8787C60.1891 28.966 60.3048 30.0536 60.2825 31.1043L60.2435 31.7544H58.4098Z" fill="white"/>
<path d="M65.0541 25.3897C64.8746 25.9585 64.5657 26.4504 64.2163 26.9347C64.0857 27.0824 63.9536 27.2305 63.8208 27.3793L63.8188 27.3815C62.6434 28.6989 61.4199 30.0701 60.7679 31.7544H63.5559C63.9775 31.1078 64.364 30.4393 64.6618 29.7173C64.9567 28.9 64.9746 27.8539 64.9917 26.8526C65.0004 26.3411 65.0089 25.8414 65.0541 25.3897Z" fill="white"/>
<path d="M67.1199 56.7897C67.3265 57.2204 67.5956 57.627 67.8882 58.0108L68.186 57.1007L65.6998 50.8885C65.7236 51.0795 65.7467 51.2708 65.7698 51.4622C65.899 52.5327 66.0281 53.603 66.2784 54.6114L66.3761 54.6411V54.9793C66.5572 55.6169 66.7944 56.2259 67.1199 56.7897Z" fill="white"/>
<path fill-rule="evenodd" clip-rule="evenodd" d="M66.3761 54.6411V54.9793C66.3416 54.8577 66.3091 54.735 66.2784 54.6114L66.3761 54.6411ZM66.3761 57.72V57.0936C66.6921 57.3448 66.9976 57.6152 67.2881 57.9123C67.4431 58.0837 67.6004 58.2472 67.7605 58.4012L67.2205 60.0516C65.4133 59.5639 63.8724 58.9608 62.452 57.72H66.3761ZM58.7315 50.0336C58.915 51.4317 59.1309 52.8339 59.6923 54.0833V51.9563C59.3195 51.4051 58.9941 50.7732 58.7315 50.0336ZM59.6923 40.4937V44.2278L59.5802 44.0534C58.5201 42.4045 57.4171 40.6888 57.038 39.0722C56.8967 38.4883 56.8073 37.9561 56.759 37.4439L57.7691 38.1728V39.8716L59.6923 40.4937Z" fill="white"/>
<path d="M57.0929 45.4596C57.2417 45.9532 57.4193 46.434 57.6228 46.9004C58.1527 48.1147 58.8587 49.2318 59.6923 50.2264V46.0129C58.2506 44.3321 56.8314 42.5266 56.6517 40.2481C56.5621 40.9812 56.5366 41.7004 56.569 42.4024C56.8468 43.3232 57.018 44.3459 57.0929 45.4596Z" fill="white"/>
<path d="M104.323 55.1357C104.894 54.6071 105.42 54.2325 105.952 53.8751L105.369 51.2555L104.323 55.1357Z" fill="white"/>
<path d="M92.5542 33.0877L85 10L77.4458 33.0877H53L58.3697 36.962H60.6904L57.1981 34.4423H78.4369L85 14.3835L91.5631 34.4423H112.802L109.31 36.962H109.689V38.3626L109.922 38.1943V36.962H111.63L117 33.0877H92.5542Z" fill="white"/>
<path d="M65.2229 70.4444L85 56.1754L95.5266 63.7703L104.777 70.4444L101.861 61.5311L100.647 57.8214C100.177 57.8782 99.8197 57.9167 99.5843 57.9348L99.5459 57.9378H99.5074C99.4121 57.9378 99.322 57.9251 99.2405 57.9064L102.183 66.8981L85 54.5011L67.8175 66.8981L70.7893 57.8155C70.2825 57.8775 69.9047 57.9181 69.6661 57.9352L69.6304 57.9378H69.5946C69.4985 57.9378 69.4075 57.9249 69.3255 57.9059L65.2229 70.4444Z" fill="white"/>
<path fill-rule="evenodd" clip-rule="evenodd" d="M102.112 58.0108L101.993 57.6493C102.135 57.6298 102.275 57.6099 102.415 57.5896C102.318 57.733 102.217 57.8734 102.112 58.0108ZM103.841 56.9253L103.716 57.3896L103.171 57.4751C103.014 57.6145 102.861 57.7599 102.712 57.9123C102.557 58.0837 102.4 58.2473 102.24 58.4015L102.802 60.1201C104.617 59.6544 106.122 59.0627 107.53 57.801C107.504 57.7887 107.482 57.7778 107.465 57.7695C107.33 57.7017 107.188 57.6141 107.047 57.5202L106.714 57.2975L106.281 55.3524L106.074 55.476C105.315 55.9298 104.555 56.3846 103.841 56.9253Z" fill="white"/>
<path d="M40.5417 31.448L36.8195 31.5973L34.2511 31.4853C33.6308 33.078 32.3528 35.0814 30.4172 37.4953C29.6232 38.4908 28.8291 39.4365 28.035 40.3324C27.2409 41.2283 26.4345 42.0869 25.6156 42.9081C25.6156 40.0462 25.8017 36.0768 26.1739 31L21.1489 32.0452C21.2978 34.4343 21.3722 37.4704 21.3722 41.1536V48.6195C21.3722 50.3367 21.335 51.8672 21.2606 53.2111C21.2109 54.5549 21.1241 55.7246 21 56.72L23.4939 56.608L25.8761 56.72L25.6156 49.8887V44.7746C27.2285 44.7746 28.3328 44.899 28.9283 45.1479C30.8887 45.8945 32.39 47.5121 33.4322 50.0007C33.7548 50.7473 34.0402 51.6805 34.2884 52.8004C34.5613 53.9203 34.8219 55.2268 35.07 56.72L37.5267 56.608L40.0206 56.72C38.7302 51.7676 37.6756 48.5324 36.8567 47.0144C35.1445 43.804 32.5637 41.8504 29.1145 41.1536C31.8441 38.665 34.1519 36.6119 36.0378 34.9943C37.9237 33.3766 39.425 32.1945 40.5417 31.448Z" fill="#FFD666"/>
<path d="M50.0575 57C47.2865 57 45.2186 56.2742 43.8538 54.8224C42.489 53.35 41.8066 51.048 41.8066 47.9165C41.8066 46.527 41.8893 45.2723 42.0547 44.1524C42.2202 43.0118 42.4476 42.0786 42.7371 41.3527C43.0473 40.855 43.5436 40.3262 44.226 39.7662C44.9291 39.1855 45.6322 38.6982 46.3353 38.3041C47.059 37.9101 47.576 37.7131 47.8862 37.7131C50.6572 37.7131 52.7251 38.4493 54.0899 39.9218C55.4547 41.3735 56.1371 43.6754 56.1371 46.8277C56.1371 49.2334 55.8787 51.4109 55.3617 53.3604C55.0308 53.8166 54.4932 54.3351 53.7487 54.9158C53.025 55.4965 52.3012 55.9942 51.5774 56.4089C50.8743 56.803 50.3677 57 50.0575 57ZM49.8094 55.1335C50.0368 55.1335 50.5124 54.9469 51.2362 54.5736C51.9807 54.2003 52.3942 53.9411 52.477 53.7959C52.8699 52.0538 53.0663 49.9178 53.0663 47.3877C53.0663 44.7953 52.7458 42.8563 52.1047 41.5705C51.4637 40.2847 50.3263 39.6418 48.6927 39.6418C47.6587 39.6418 46.904 39.7662 46.4283 40.0151C45.9114 40.2847 45.5185 41.0416 45.2496 42.286C45.0015 43.5303 44.8774 45.1997 44.8774 47.2943C44.8774 49.3267 45.0222 50.9028 45.3117 52.0227C45.6219 53.1426 46.1285 53.9411 46.8316 54.418C47.5347 54.895 48.5273 55.1335 49.8094 55.1335Z" fill="#FFD666"/>
<path d="M69.5946 56.9378C69.5119 56.9378 69.3465 56.8548 69.0983 56.6889L65.4381 47.5432C65.0245 46.527 64.2904 44.5465 63.2358 41.6016H63.0187L63.3288 53.6403V54.7602L65.3761 55.3824V56.72H58.7691V55.5379L60.6923 54.9158V39.7662L58.7691 39.1441V37.962H64.4765L68.7261 48.3831C68.9949 49.0675 69.636 50.9443 70.6492 54.0136H70.8974L70.5872 41.0105V39.9218L68.54 39.2996V37.962H75.1469V39.1441L73.2238 39.7662V56.5023C72.7275 56.5852 72.0657 56.6682 71.2386 56.7511C70.4321 56.8548 69.8841 56.917 69.5946 56.9378Z" fill="#FFD666"/>
<path d="M99.5074 56.9378C99.4247 56.9378 99.2592 56.8548 99.0111 56.6889L94.9166 39.7662L92.9935 39.1441L94 37.962H99.7245V39.2996L97.9565 39.9218L100.128 49.5341C100.314 50.4051 100.614 51.8465 101.027 53.8581H101.369C101.451 53.4848 101.637 52.7797 101.927 51.7428C102.216 50.7058 102.454 49.8452 102.64 49.1608C103.405 46.444 103.984 44.3287 104.377 42.8148L103.633 39.7662L101.958 39.0507V37.962H108.689V39.3929L106.673 39.9218L108.627 49.5341C108.813 50.4051 109.113 51.8465 109.526 53.8581H109.868L110.984 49.1297C112.225 43.945 112.949 40.8757 113.156 39.9218L110.922 39.2996V37.962H117.777V39.1441L115.854 39.7662L111.512 56.5023C110.85 56.606 110.178 56.6993 109.495 56.7822C108.834 56.8652 108.368 56.917 108.1 56.9378C108.017 56.9378 107.851 56.8548 107.603 56.6889L105.587 47.6365H105.308L102.919 56.5023C102.258 56.606 101.586 56.6993 100.903 56.7822C100.242 56.8652 99.7762 56.917 99.5074 56.9378Z" fill="#FFD666"/>
<path d="M119.28 55.5379L121.203 54.9158V39.7662L119.28 39.1441V37.962H131.625L131.222 43.4058H129.547L129.205 39.4862L124.087 39.9218V46.0811L128.616 46.2367V47.6987L124.087 47.8543V54.698L129.485 55.1957L129.981 51.1517H131.656L131.78 56.72H119.28V55.5379Z" fill="#FFD666"/>
<path d="M140.112 57C138.561 57 136.545 56.8963 134.063 56.6889L134.28 50.9962H136.017L136.514 54.4803C137.32 54.6047 138.147 54.7188 138.995 54.8224C139.864 54.9054 140.577 54.9469 141.136 54.9469C141.26 54.9469 141.425 54.8121 141.632 54.5425C141.839 54.2729 142.025 53.9514 142.19 53.5781C142.356 53.1841 142.438 52.8108 142.438 52.4582C142.438 51.6494 142.138 50.9754 141.539 50.4362C140.96 49.897 140.06 49.2852 138.84 48.6009C137.868 48.0409 137.082 47.5432 136.483 47.1077C135.883 46.6722 135.366 46.1226 134.932 45.459C134.518 44.7953 134.311 44.028 134.311 43.157C134.311 42.5763 134.363 42.0371 134.467 41.5394C134.715 41.0831 135.18 40.5543 135.862 39.9529C136.545 39.3514 137.248 38.833 137.972 38.3975C138.695 37.9412 139.233 37.7131 139.585 37.7131C139.75 37.7131 140.97 37.8272 143.245 38.0553C143.493 38.076 143.751 38.0968 144.02 38.1175C144.289 38.1382 144.558 38.1693 144.827 38.2108L144.61 43.5925H142.873L142.407 40.4195C141.746 40.295 140.96 40.181 140.05 40.0773C139.161 39.9529 138.489 39.8906 138.034 39.8906C137.765 39.8906 137.537 40.0773 137.351 40.4506C137.165 40.8031 137.072 41.3631 137.072 42.1304C137.072 42.96 137.362 43.6547 137.941 44.2146C138.52 44.7746 139.378 45.376 140.515 46.0189C141.632 46.6618 142.49 47.201 143.09 47.6365C143.71 48.0513 144.248 48.5905 144.703 49.2541C145.158 49.9178 145.385 50.7162 145.385 51.6494C145.385 52.1679 145.323 52.676 145.199 53.1737C144.951 53.6922 144.496 54.2521 143.834 54.8536C143.172 55.455 142.48 55.9631 141.756 56.3778C141.053 56.7926 140.505 57 140.112 57Z" fill="#FFD666"/>
<path d="M150.454 55.5379L152.377 54.9158V39.7662L148.996 39.9529L148.686 43.8102H147.042L146.638 37.962H161L160.597 43.8102H158.922L158.612 39.9529L155.262 39.7662V54.7602L157.309 55.3824V56.72H150.454V55.5379Z" fill="#FFD666"/>
</svg>
