<svg width="160" height="80" viewBox="0 0 160 80" fill="none" xmlns="http://www.w3.org/2000/svg">
<path fill-rule="evenodd" clip-rule="evenodd" d="M83.7777 35.3106L80.3915 35.4512L78.055 35.3458C77.4906 36.8454 76.328 38.7316 74.5671 41.0044C73.8447 41.9417 73.1223 42.8321 72.3999 43.6756C71.6775 44.5191 70.9438 45.3275 70.1989 46.1007C70.1989 43.4062 70.3682 39.6689 70.7068 34.8889L66.1354 35.873C66.2708 38.1224 66.3386 40.981 66.3386 44.4488V51.4782C66.3386 53.095 66.3047 54.536 66.237 55.8013C66.1999 56.8408 66.1399 57.7695 66.0571 58.5876L70.3039 55.5236L70.1989 52.6732V47.8581C71.6662 47.8581 72.6708 47.9753 73.2126 48.2096C74.9961 48.9125 76.3618 50.4355 77.31 52.7787C77.6035 53.4816 77.8631 54.3603 78.0888 55.4147C78.1248 55.5676 78.1606 55.7242 78.1961 55.8845L82.2798 58.8308C81.8606 57.0111 81.5871 55.3588 81.3558 53.9615C81.0511 52.1215 80.8197 50.7235 80.4253 49.9669C78.8677 46.9443 76.5199 45.1049 73.3819 44.4488C75.8652 42.1057 77.9647 40.1726 79.6804 38.6496C81.3961 37.1266 82.7618 36.0136 83.7777 35.3106Z" fill="#FFD666"/>
<path fill-rule="evenodd" clip-rule="evenodd" d="M80.8197 62.74C80.6971 62.7172 80.5792 62.6858 80.4707 62.6367C80.5212 62.6238 80.5717 62.6107 80.622 62.5974L80.8197 62.74ZM58.7716 13.7517L58.7695 13.7527C56.8914 14.648 54.8834 15.6054 53.7652 18.0302C53.2684 18.8591 53.0566 19.8353 52.8449 20.811C52.6972 21.492 52.5495 22.1727 52.305 22.8028C52.7281 22.3094 53.2401 21.8114 53.7655 21.3004C54.6084 20.4807 55.4856 19.6276 56.0843 18.7065C56.4229 18.1202 56.7095 17.5529 56.9881 17.0015C57.6017 15.7871 58.1763 14.6497 59.1814 13.5556C59.0459 13.6209 58.9089 13.6862 58.7716 13.7517ZM88.8186 13.5556C89.8239 14.6499 90.3987 15.7874 91.0125 17.002C91.291 17.5533 91.5776 18.1204 91.916 18.7065C92.5148 19.6277 93.392 20.4808 94.2349 21.3007C94.7601 21.8115 95.272 22.3095 95.695 22.8028C95.4505 22.1728 95.3028 21.4919 95.1551 20.8109C94.9434 19.8353 94.7316 18.859 94.2348 18.0302C93.1166 15.6054 91.1086 14.648 89.2305 13.7527C89.0924 13.6868 88.9549 13.6213 88.8186 13.5556ZM53.8148 16.9087C52.8007 17.2291 51.8994 17.9912 51.1886 19.0891C49.5506 21.2227 49.2698 24.0218 49.9486 27.3964C50.0892 27.9335 50.0248 28.4502 49.9616 28.9581C49.9198 29.2942 49.8785 29.6264 49.8972 29.9582C50.3783 28.7334 50.9232 27.6077 51.9827 26.8192C54.3452 25.1597 54.995 24.2809 55.5995 22.7164L55.6831 22.5001C56.3208 20.8522 56.443 20.5365 56.458 18.9524C55.9889 20.5778 54.8715 21.5576 53.7646 22.5282C53.2544 22.9756 52.7463 23.4211 52.305 23.927C51.5863 24.8021 51.0106 25.8161 50.6829 26.8899L50.6326 26.8405C50.7266 26.3222 50.8722 25.8326 51.0175 25.3441C51.1385 24.9372 51.2593 24.5312 51.3497 24.11C51.5153 23.4454 51.6279 22.7449 51.7408 22.043C52.0535 20.0981 52.3679 18.1423 53.8148 16.9087ZM94.1187 16.9087C95.5656 18.1423 95.8801 20.0981 96.1928 22.043C96.3056 22.7449 96.4182 23.4454 96.5838 24.11C96.6742 24.531 96.7951 24.9373 96.9161 25.3441C97.0613 25.8326 97.207 26.3222 97.3009 26.8405L97.2506 26.8899C96.9229 25.8161 96.3472 24.8021 95.6285 23.927C95.1872 23.4211 94.6792 22.9756 94.1689 22.5282C93.062 21.5576 91.9446 20.5778 91.4755 18.9524C91.4905 20.5356 91.6129 20.8519 92.2497 22.4975L92.3344 22.7164C92.9389 24.2809 93.5883 25.1597 95.9508 26.8192C97.0103 27.6077 97.5552 28.7334 98.0363 29.9582C98.0551 29.6264 98.0137 29.2942 97.9719 28.9581C97.9087 28.4502 97.8444 27.9335 97.9849 27.3964C98.6637 24.0218 98.3829 21.2227 96.7449 19.0891C96.0341 17.9912 95.1328 17.2291 94.1187 16.9087Z" fill="white"/>
<path d="M51.9739 58.7103C52.682 60.4369 53.9145 61.9245 55.2795 62.9275L55.8176 61.2828C54.3725 60.9191 53.0377 60.2179 51.9739 58.7103Z" fill="white"/>
<path d="M67.3779 62.5973C67.4283 62.6107 67.4788 62.6238 67.5293 62.6367C67.4208 62.6858 67.3029 62.7172 67.1802 62.74L67.3779 62.5973Z" fill="white"/>
<path d="M77.096 62.5317C76.246 62.5313 75.3975 62.654 74.5827 62.9154C74.2466 63.29 73.9043 63.1343 73.5555 62.9757C73.3675 62.8902 73.1777 62.8038 72.9859 62.7992C69.8293 61.9357 67.0649 63.4556 64.4226 64.9083C64.1284 65.07 63.8357 65.2309 63.5441 65.3877C63.5113 65.4037 63.4783 65.4194 63.4451 65.4348L60.2981 67.7054C62.687 68.7995 65.4882 67.9856 67.4491 66.2864C67.8928 65.9774 68.3205 65.5912 68.7498 65.2036C69.9851 64.0881 71.2338 62.9607 72.9159 63.6273C70.6092 64.9564 68.5007 66.8198 66.5944 69.2149L67.7886 70.4444C69.1786 68.1312 71.0276 66.2433 72.8973 64.7766C72.9594 64.7352 73.022 64.6923 73.0852 64.649C73.4343 64.4097 73.7993 64.1597 74.1802 64.099C76.4768 65.5 78.5281 67.8948 80.3803 70.3819C80.7754 69.9859 81.195 69.5562 81.5189 69.0968C79.5969 66.7825 77.4948 64.9714 75.2319 63.6562C75.6079 63.522 76.0346 63.4959 76.4771 63.5072C77.4283 63.4353 78.1431 64.0736 78.859 64.7128C79.0612 64.8933 79.2634 65.0739 79.4711 65.2386C81.7268 67.3718 84.7169 68.8037 87.612 67.6405L83.662 64.7907L82.3869 64.1519C80.8436 63.1291 78.966 62.5327 77.096 62.5317Z" fill="white"/>
<path d="M92.1824 61.2829C93.6276 60.9193 94.9626 60.218 96.0265 58.7103C95.3183 60.437 94.0857 61.9247 92.7206 62.9278L92.1824 61.2829Z" fill="white"/>
<path d="M94.7837 26.9347C94.4343 26.4504 94.1254 25.9585 93.9459 25.3897C93.991 25.8412 93.9996 26.3409 94.0084 26.8522C94.0256 27.8536 94.0436 28.8998 94.3386 29.7173C94.6364 30.4393 95.0226 31.1078 95.4441 31.7544H98.2321C97.5801 30.0701 96.3561 28.6983 95.1807 27.381C95.0474 27.2316 94.9148 27.083 94.7837 26.9347Z" fill="white"/>
<path d="M98.7568 31.7544L98.7178 31.1043C98.6956 30.0538 98.8112 28.9663 98.9268 27.8791C99.1688 25.6038 99.4106 23.3296 98.3878 21.398C98.4238 21.3896 98.4485 21.4114 98.4738 21.4337C98.4813 21.4403 98.4889 21.447 98.4969 21.4529L98.5018 21.4565L98.5074 21.4602C98.6072 21.6181 98.7061 21.7733 98.8036 21.9263C100.048 23.8791 101.075 25.4904 101.02 28.199C101.082 29.4149 100.886 30.5945 100.59 31.7544H98.7568Z" fill="white"/>
<path d="M101.43 31.7544C101.428 31.3143 101.394 30.8613 101.321 30.3924C101.486 30.8242 101.6 31.2846 101.695 31.7544H101.43Z" fill="white"/>
<path d="M46.305 31.7544C46.4002 31.2846 46.5144 30.8242 46.6791 30.3924C46.6056 30.8613 46.5718 31.3143 46.5703 31.7544H46.305Z" fill="white"/>
<path d="M47.4098 31.7544C47.1143 30.5945 46.9178 29.4149 46.9803 28.199C46.9254 25.4908 47.9517 23.8801 49.1959 21.9277C49.2937 21.7742 49.3928 21.6186 49.4929 21.4602C49.5049 21.4528 49.5158 21.4431 49.5266 21.4336C49.5518 21.4113 49.5763 21.3896 49.6122 21.398C48.5895 23.3295 48.8314 25.6034 49.0734 27.8787C49.1891 28.966 49.3048 30.0536 49.2825 31.1043L49.2435 31.7544H47.4098Z" fill="white"/>
<path d="M54.0541 25.3897C53.8746 25.9585 53.5657 26.4504 53.2163 26.9347C53.0857 27.0824 52.9536 27.2305 52.8208 27.3793L52.8188 27.3815C51.6434 28.6989 50.4199 30.0701 49.7679 31.7544H52.5559C52.9775 31.1078 53.364 30.4393 53.6618 29.7173C53.9567 28.9 53.9746 27.8539 53.9917 26.8526C54.0004 26.3411 54.0089 25.8414 54.0541 25.3897Z" fill="white"/>
<path d="M56.1199 56.7897C56.3265 57.2204 56.5956 57.627 56.8882 58.0108L57.186 57.1007L54.6998 50.8885C54.7236 51.0795 54.7467 51.2708 54.7698 51.4622C54.899 52.5327 55.0281 53.603 55.2784 54.6114L55.3761 54.6411V54.9793C55.5572 55.6169 55.7944 56.2259 56.1199 56.7897Z" fill="white"/>
<path fill-rule="evenodd" clip-rule="evenodd" d="M55.3761 54.6411V54.9793C55.3416 54.8577 55.3091 54.735 55.2784 54.6114L55.3761 54.6411ZM55.3761 57.72V57.0936C55.6921 57.3448 55.9976 57.6152 56.2881 57.9123C56.4431 58.0837 56.6004 58.2472 56.7605 58.4012L56.2205 60.0516C54.4133 59.5639 52.8724 58.9608 51.452 57.72H55.3761ZM47.7315 50.0336C47.915 51.4317 48.1309 52.8339 48.6923 54.0833V51.9563C48.3195 51.4051 47.9941 50.7732 47.7315 50.0336ZM48.6923 40.4937V44.2278L48.5802 44.0534C47.5201 42.4045 46.4171 40.6888 46.038 39.0722C45.8967 38.4883 45.8073 37.9561 45.759 37.4439L46.7691 38.1728V39.8716L48.6923 40.4937Z" fill="white"/>
<path d="M46.0929 45.4596C46.2417 45.9532 46.4193 46.434 46.6228 46.9004C47.1527 48.1147 47.8587 49.2317 48.6923 50.2264V46.0129C47.2506 44.3321 45.8314 42.5266 45.6517 40.2481C45.5621 40.9812 45.5366 41.7004 45.569 42.4024C45.8468 43.3232 46.018 44.3459 46.0929 45.4596Z" fill="white"/>
<path d="M93.3233 55.1357C93.8936 54.6071 94.4205 54.2325 94.952 53.8751L94.3686 51.2555L93.3233 55.1357Z" fill="white"/>
<path d="M81.5542 33.0877L74 10L66.4458 33.0877H42L47.3697 36.962H49.6904L46.1981 34.4423H67.4369L74 14.3835L80.5631 34.4423H101.802L98.3096 36.962H98.6889V38.3626L98.9222 38.1943V36.962H100.63L106 33.0877H81.5542Z" fill="white"/>
<path d="M54.2229 70.4444L74 56.1754L84.5266 63.7703L93.7771 70.4444L90.8607 61.5311L89.6469 57.8214C89.1768 57.8782 88.8197 57.9167 88.5843 57.9348L88.5459 57.9378H88.5074C88.4121 57.9378 88.322 57.9251 88.2405 57.9064L91.1825 66.8981L74 54.5011L56.8175 66.8981L59.7893 57.8155C59.2825 57.8775 58.9047 57.9181 58.6661 57.9352L58.6304 57.9378H58.5946C58.4985 57.9378 58.4075 57.9249 58.3255 57.9059L54.2229 70.4444Z" fill="white"/>
<path fill-rule="evenodd" clip-rule="evenodd" d="M91.1118 58.0108L90.9935 57.6493C91.1345 57.6298 91.2752 57.6099 91.4154 57.5896C91.3184 57.733 91.2166 57.8734 91.1118 58.0108ZM92.8411 56.9253L92.716 57.3896L92.1706 57.4751C92.0143 57.6145 91.8613 57.7599 91.7123 57.9123C91.5572 58.0837 91.3997 58.2473 91.2396 58.4015L91.8019 60.1201C93.6166 59.6544 95.1223 59.0627 96.53 57.801C96.5036 57.7887 96.4818 57.7778 96.4652 57.7695C96.3299 57.7017 96.1879 57.6141 96.0474 57.5202L95.7143 57.2975L95.2811 55.3524L95.0744 55.476C94.3153 55.9298 93.5546 56.3846 92.8411 56.9253Z" fill="white"/>
<path d="M29.5417 31.448L25.8195 31.5973L23.2511 31.4853C22.6308 33.078 21.3528 35.0814 19.4172 37.4953C18.6232 38.4908 17.8291 39.4365 17.035 40.3324C16.2409 41.2283 15.4345 42.0869 14.6156 42.9081C14.6156 40.0462 14.8017 36.0768 15.1739 31L10.1489 32.0452C10.2978 34.4343 10.3722 37.4704 10.3722 41.1536V48.6195C10.3722 50.3367 10.335 51.8672 10.2606 53.2111C10.2109 54.5549 10.1241 55.7246 10 56.72L12.4939 56.608L14.8761 56.72L14.6156 49.8887V44.7746C16.2285 44.7746 17.3328 44.899 17.9283 45.1479C19.8887 45.8945 21.39 47.5121 22.4322 50.0007C22.7548 50.7473 23.0402 51.6805 23.2884 52.8004C23.5613 53.9203 23.8219 55.2268 24.07 56.72L26.5267 56.608L29.0206 56.72C27.7302 51.7676 26.6756 48.5324 25.8567 47.0144C24.1445 43.804 21.5637 41.8504 18.1145 41.1536C20.8441 38.665 23.1519 36.6119 25.0378 34.9943C26.9237 33.3766 28.425 32.1945 29.5417 31.448Z" fill="#FFD666"/>
<path d="M39.0575 57C36.2865 57 34.2186 56.2741 32.8538 54.8224C31.489 53.35 30.8066 51.048 30.8066 47.9165C30.8066 46.527 30.8893 45.2723 31.0547 44.1524C31.2202 43.0118 31.4476 42.0786 31.7371 41.3527C32.0473 40.855 32.5436 40.3262 33.226 39.7662C33.9291 39.1855 34.6322 38.6982 35.3353 38.3041C36.059 37.9101 36.576 37.7131 36.8862 37.7131C39.6572 37.7131 41.7251 38.4493 43.0899 39.9218C44.4547 41.3735 45.1371 43.6754 45.1371 46.8277C45.1371 49.2334 44.8787 51.4109 44.3617 53.3604C44.0308 53.8166 43.4932 54.3351 42.7487 54.9158C42.025 55.4965 41.3012 55.9942 40.5774 56.4089C39.8743 56.803 39.3677 57 39.0575 57ZM38.8094 55.1335C39.0368 55.1335 39.5124 54.9469 40.2362 54.5736C40.9807 54.2003 41.3942 53.9411 41.477 53.7959C41.8699 52.0538 42.0663 49.9178 42.0663 47.3877C42.0663 44.7953 41.7458 42.8563 41.1047 41.5705C40.4637 40.2847 39.3263 39.6418 37.6927 39.6418C36.6587 39.6418 35.904 39.7662 35.4283 40.0151C34.9114 40.2847 34.5185 41.0416 34.2496 42.286C34.0015 43.5303 33.8774 45.1997 33.8774 47.2943C33.8774 49.3267 34.0222 50.9028 34.3117 52.0227C34.6219 53.1426 35.1285 53.9411 35.8316 54.418C36.5347 54.895 37.5273 55.1335 38.8094 55.1335Z" fill="#FFD666"/>
<path d="M58.5946 56.9378C58.5119 56.9378 58.3464 56.8548 58.0983 56.6889L54.4381 47.5432C54.0245 46.527 53.2904 44.5465 52.2358 41.6016H52.0187L52.3288 53.6403V54.7602L54.3761 55.3824V56.72H47.7691V55.5379L49.6923 54.9158V39.7662L47.7691 39.1441V37.962H53.4765L57.7261 48.3831C57.9949 49.0675 58.636 50.9443 59.6492 54.0136H59.8974L59.5872 41.0105V39.9218L57.54 39.2996V37.962H64.1469V39.1441L62.2238 39.7662V56.5023C61.7275 56.5852 61.0657 56.6682 60.2386 56.7511C59.4321 56.8548 58.8841 56.917 58.5946 56.9378Z" fill="#FFD666"/>
<path d="M88.5074 56.9378C88.4247 56.9378 88.2592 56.8548 88.0111 56.6889L83.9166 39.7662L81.9935 39.1441L83 37.962H88.7245V39.2996L86.9565 39.9218L89.1278 49.5341C89.3139 50.4051 89.6137 51.8465 90.0273 53.8581H90.3685C90.4512 53.4848 90.6373 52.7797 90.9268 51.7428C91.2163 50.7058 91.4542 49.8452 91.6403 49.1608C92.4054 46.444 92.9844 44.3287 93.3773 42.8148L92.6329 39.7662L90.9579 39.0507V37.962H97.6889V39.3929L95.6727 39.9218L97.6268 49.5341C97.813 50.4051 98.1128 51.8465 98.5264 53.8581H98.8676L99.9843 49.1297C101.225 43.945 101.949 40.8757 102.156 39.9218L99.9222 39.2996V37.962H106.777V39.1441L104.854 39.7662L100.512 56.5023C99.8498 56.606 99.1778 56.6993 98.4954 56.7822C97.8336 56.8652 97.3684 56.917 97.0995 56.9378C97.0168 56.9378 96.8514 56.8548 96.6032 56.6889L94.587 47.6365H94.3079L91.9194 56.5023C91.2577 56.606 90.5856 56.6993 89.9032 56.7822C89.2415 56.8652 88.7762 56.917 88.5074 56.9378Z" fill="#FFD666"/>
<path d="M108.28 55.5379L110.203 54.9158V39.7662L108.28 39.1441V37.962H120.625L120.222 43.4058H118.547L118.205 39.4862L113.087 39.9218V46.0811L117.616 46.2367V47.6987L113.087 47.8543V54.698L118.485 55.1957L118.981 51.1517H120.656L120.78 56.72H108.28V55.5379Z" fill="#FFD666"/>
<path d="M129.112 57C127.561 57 125.545 56.8963 123.063 56.6889L123.28 50.9962H125.017L125.514 54.4803C126.32 54.6047 127.147 54.7188 127.995 54.8224C128.864 54.9054 129.577 54.9469 130.136 54.9469C130.26 54.9469 130.425 54.8121 130.632 54.5425C130.839 54.2729 131.025 53.9514 131.19 53.5781C131.356 53.1841 131.438 52.8108 131.438 52.4582C131.438 51.6494 131.138 50.9754 130.539 50.4362C129.96 49.897 129.06 49.2852 127.84 48.6009C126.868 48.0409 126.082 47.5432 125.483 47.1077C124.883 46.6722 124.366 46.1226 123.932 45.459C123.518 44.7953 123.311 44.028 123.311 43.157C123.311 42.5763 123.363 42.0371 123.467 41.5394C123.715 41.0831 124.18 40.5543 124.862 39.9529C125.545 39.3514 126.248 38.833 126.972 38.3975C127.695 37.9412 128.233 37.7131 128.585 37.7131C128.75 37.7131 129.97 37.8272 132.245 38.0553C132.493 38.076 132.751 38.0968 133.02 38.1175C133.289 38.1382 133.558 38.1693 133.827 38.2108L133.61 43.5925H131.873L131.407 40.4195C130.746 40.295 129.96 40.181 129.05 40.0773C128.161 39.9529 127.489 39.8906 127.034 39.8906C126.765 39.8906 126.537 40.0773 126.351 40.4506C126.165 40.8031 126.072 41.3631 126.072 42.1304C126.072 42.96 126.362 43.6547 126.941 44.2146C127.52 44.7746 128.378 45.376 129.515 46.0189C130.632 46.6618 131.49 47.201 132.09 47.6365C132.71 48.0513 133.248 48.5905 133.703 49.2541C134.158 49.9178 134.385 50.7162 134.385 51.6494C134.385 52.1679 134.323 52.676 134.199 53.1737C133.951 53.6922 133.496 54.2521 132.834 54.8536C132.172 55.455 131.48 55.9631 130.756 56.3778C130.053 56.7926 129.505 57 129.112 57Z" fill="#FFD666"/>
<path d="M139.454 55.5379L141.377 54.9158V39.7662L137.996 39.9529L137.686 43.8102H136.042L135.638 37.962H150L149.597 43.8102H147.922L147.612 39.9529L144.262 39.7662V54.7602L146.309 55.3824V56.72H139.454V55.5379Z" fill="#FFD666"/>
</svg>
