<svg width="50" height="38" viewBox="0 0 50 38" fill="none" xmlns="http://www.w3.org/2000/svg">
<g clip-path="url(#clip0_931_11)">
<path d="M48 25V26L25 37L2 26V25" stroke="white" stroke-width="0.5"/>
<path d="M48 20V21L25 32L2 21V20" stroke="white" stroke-width="0.75"/>
<path d="M48 15V16L25 27L2 16V15" stroke="white"/>
<path d="M48 10V11L25 22L2 11V10" stroke="white"/>
<path d="M48 5V6L25 17L2 6V5" stroke="white" stroke-width="0.75"/>
<path d="M48 0V1L25 12L2 1V0" stroke="white" stroke-width="0.5"/>
<path d="M19.763 5.072C19.6616 5.072 19.451 5.06133 19.131 5.04C18.811 5.01867 18.5656 4.99733 18.395 4.976L18.403 3.944L18.707 3.936L18.843 4.56C18.9816 4.592 19.1416 4.62133 19.323 4.648C19.5096 4.67467 19.6456 4.688 19.731 4.688C19.795 4.688 19.8696 4.62133 19.955 4.488C20.0456 4.35467 20.091 4.232 20.091 4.12C20.091 4.00267 20.0616 3.904 20.003 3.824C19.9443 3.744 19.8723 3.67733 19.787 3.624C19.7016 3.56533 19.5363 3.46667 19.291 3.328C18.9763 3.152 18.7523 2.99733 18.619 2.864C18.491 2.72533 18.427 2.55467 18.427 2.352C18.427 2.20267 18.4403 2.088 18.467 2.008C18.5416 1.88 18.6696 1.74133 18.851 1.592C19.0323 1.44267 19.1656 1.368 19.251 1.368C19.4216 1.368 19.6403 1.376 19.907 1.392C20.1736 1.408 20.3763 1.424 20.515 1.44L20.491 2.344H20.155L20.099 1.856C20.035 1.84 19.8883 1.81867 19.659 1.792C19.4296 1.76533 19.283 1.752 19.219 1.752C19.155 1.752 19.0883 1.792 19.019 1.872C18.955 1.94667 18.923 2.04533 18.923 2.168C18.923 2.30133 18.9656 2.41067 19.051 2.496C19.1416 2.58133 19.243 2.65867 19.355 2.728C19.467 2.792 19.5416 2.83467 19.579 2.856C19.6003 2.872 19.6643 2.90933 19.771 2.968C20.0536 3.13867 20.2723 3.296 20.427 3.44C20.5816 3.57867 20.659 3.744 20.659 3.936C20.659 4.03733 20.643 4.152 20.611 4.28C20.5416 4.44 20.4136 4.61333 20.227 4.8C20.0403 4.98133 19.8856 5.072 19.763 5.072ZM22.4151 5.072C22.0684 5.072 21.7831 4.928 21.5591 4.64C21.3351 4.352 21.2231 3.93867 21.2231 3.4C21.2231 3.128 21.2418 2.88 21.2791 2.656C21.3218 2.42667 21.3751 2.25067 21.4391 2.128C21.5084 2.02133 21.6178 1.90933 21.7671 1.792C21.9218 1.67467 22.0738 1.576 22.2231 1.496C22.3724 1.41067 22.4764 1.368 22.5351 1.368C22.6364 1.368 22.7618 1.37867 22.9111 1.4C23.0658 1.42133 23.2071 1.45067 23.3351 1.488L23.3191 2.456H22.9511L22.8631 1.856C22.6764 1.78667 22.5191 1.752 22.3911 1.752C22.3591 1.752 22.3191 1.76267 22.2711 1.784C22.2231 1.80533 22.1778 1.83467 22.1351 1.872C22.0284 1.95733 21.9431 2.12267 21.8791 2.368C21.8204 2.61333 21.7911 2.928 21.7911 3.312C21.7911 3.77067 21.8631 4.10667 22.0071 4.32C22.1564 4.528 22.3378 4.632 22.5511 4.632L23.3431 4.624V4.888C23.1991 4.92533 23.0231 4.96533 22.8151 5.008C22.6071 5.05067 22.4738 5.072 22.4151 5.072ZM24.3986 5.072C24.3773 5.072 24.3319 5.04267 24.2626 4.984C24.1986 4.92 24.1666 4.87733 24.1666 4.856V1.776L23.8226 1.72V1.48C24.1906 1.40533 24.3986 1.368 24.4466 1.368C24.4679 1.368 24.5159 1.40267 24.5906 1.472C24.6706 1.536 24.7106 1.57867 24.7106 1.6L24.6946 1.96C24.8226 1.82133 24.9586 1.68267 25.1026 1.544C25.2466 1.40533 25.3293 1.336 25.3506 1.336C25.4146 1.336 25.5026 1.34933 25.6146 1.376C25.7266 1.39733 25.8119 1.41867 25.8706 1.44C25.8973 1.52 25.9106 1.584 25.9106 1.632C25.9106 1.65867 25.8866 1.71467 25.8386 1.8C25.7959 1.88 25.7639 1.928 25.7426 1.944C25.5933 1.88 25.4573 1.848 25.3346 1.848C25.3026 1.848 25.1879 1.92 24.9906 2.064C24.9106 2.12267 24.8173 2.18667 24.7106 2.256V4.624L25.1746 4.704V4.96C24.7106 5.03467 24.4519 5.072 24.3986 5.072ZM27.7126 5.072C27.2006 5.072 26.8139 4.93067 26.5526 4.648C26.2913 4.36533 26.1606 3.928 26.1606 3.336C26.1606 3.09067 26.1793 2.85867 26.2166 2.64C26.2593 2.42133 26.3126 2.25067 26.3766 2.128C26.4459 2.02133 26.5579 1.90667 26.7126 1.784C26.8673 1.66133 27.0193 1.55733 27.1686 1.472C27.3233 1.38667 27.4299 1.344 27.4886 1.344C27.9953 1.344 28.3793 1.49067 28.6406 1.784C28.9073 2.072 29.0406 2.49333 29.0406 3.048C29.0406 3.30933 29.0193 3.56 28.9766 3.8C28.9339 4.03467 28.8779 4.21867 28.8086 4.352C28.7179 4.47467 28.5339 4.62667 28.2566 4.808C27.9846 4.984 27.8033 5.072 27.7126 5.072ZM27.7286 4.712C27.7819 4.70667 27.8779 4.664 28.0166 4.584C28.1553 4.504 28.2406 4.44533 28.2726 4.408C28.4059 4.09867 28.4726 3.66667 28.4726 3.112C28.4726 2.67467 28.3873 2.33333 28.2166 2.088C28.0459 1.83733 27.8006 1.712 27.4806 1.712C27.3526 1.712 27.2193 1.76 27.0806 1.856C26.8459 2.032 26.7286 2.504 26.7286 3.272C26.7286 3.76267 26.8166 4.12533 26.9926 4.36C27.1739 4.58933 27.4193 4.70667 27.7286 4.712ZM30.2345 5.072C30.2132 5.072 30.1705 5.04267 30.1065 4.984C30.0425 4.92 30.0105 4.87733 30.0105 4.856V0.28L29.6585 0.208V-0.0240002C30.0532 -0.104 30.2745 -0.144 30.3225 -0.144C30.3439 -0.144 30.3865 -0.112 30.4505 -0.0480003C30.5145 0.0106665 30.5465 0.0506665 30.5465 0.0719995V4.648L30.8905 4.72V4.96C30.5012 5.03467 30.2825 5.072 30.2345 5.072ZM32.0158 5.072C31.9944 5.072 31.9518 5.04267 31.8878 4.984C31.8238 4.92 31.7918 4.87733 31.7918 4.856V0.28L31.4398 0.208V-0.0240002C31.8344 -0.104 32.0558 -0.144 32.1038 -0.144C32.1251 -0.144 32.1678 -0.112 32.2318 -0.0480003C32.2958 0.0106665 32.3278 0.0506665 32.3278 0.0719995V4.648L32.6718 4.72V4.96C32.2824 5.03467 32.0638 5.072 32.0158 5.072Z" fill="white"/>
</g>
<defs>
<clipPath id="clip0_931_11">
<rect width="50" height="38" fill="white"/>
</clipPath>
</defs>
</svg>
