<svg width="2360" height="2360" viewBox="0 0 2360 2360" fill="none" xmlns="http://www.w3.org/2000/svg">
<path fill-rule="evenodd" clip-rule="evenodd" d="M1121 2200C1684.33 2200 2141 1743.33 2141 1180C2141 1067.77 2122.87 959.765 2089.39 858.767L2098.19 844.519H2252.63C2284.1 950.856 2301 1063.45 2301 1180C2301 1831.7 1772.7 2360 1121 2360C809.076 2360 525.42 2238.97 314.431 2041.31L400.507 1902C585.031 2086.14 839.719 2200 1121 2200Z" fill="#C00136"/>
<path d="M1121 0C739.322 0 399.969 181.212 184.282 462.295L220.95 699.667C392.705 378.503 731.336 160 1121 160C1427.45 160 1702.34 295.148 1889.32 509.094H2091.84C1878.87 201.488 1523.46 0 1121 0Z" fill="#C00136"/>
<path d="M1053.92 844.519H1703.9L1619.87 980.52H1129.89L714.984 1652H1204.96L1120.93 1788H470.949L1053.92 844.519Z" fill="white"/>
<path d="M1226.08 1161.5L1259.62 1264.73H1368.16L1280.35 1328.52L1313.89 1431.75L1226.08 1367.95L1138.27 1431.75L1171.81 1328.52L1084 1264.73H1192.54L1226.08 1161.5Z" fill="white"/>
<path d="M0 811.445L191.361 2050.24L998.161 744.518H1883.24L1529.96 1316.26L1238.48 1788H1397.67L2042.43 744.518H2276.26L2360 609.094H922.647L269.148 1666.72L102.056 585.035C63.2954 651.294 30.8116 721.669 5.41937 795.343C3.57539 800.694 1.76883 806.061 0 811.445Z" fill="white"/>
</svg>
